<svg width="500" height="500" viewBox="0 0 500 500" fill="none" xmlns="http://www.w3.org/2000/svg">
<g clip-path="url(#clip0_209_90)">
<path d="M318.39 341.503H387.732M387.732 341.503H457.073M387.732 341.503V410.845M387.732 341.503V272.162" stroke="#F9896B" stroke-width="40" stroke-linecap="round" stroke-linejoin="round"/>
<path d="M225.935 64.1387H336.881C362.769 64.1387 375.712 64.1387 385.605 69.1774C394.303 73.6094 401.374 80.681 405.807 89.3789C410.845 99.2485 410.845 112.192 410.845 138.033V179.707H225.935M225.935 64.1387H114.989C89.1018 64.1387 76.1581 64.1387 66.2655 69.1774C57.5667 73.608 50.4946 80.6801 46.064 89.3789C41.0252 99.2716 41.0252 112.215 41.0252 138.103V179.707M225.935 64.1387V179.707M225.935 179.707H41.0252M225.935 179.707V433.959H114.92C89.0787 433.959 76.135 433.959 66.2655 428.92C57.5676 424.488 50.496 417.416 46.064 408.718C41.0252 398.826 41.0252 385.882 41.0252 359.995V318.39M41.0252 179.707V318.39M41.0252 318.39H225.935" stroke="#613BE3" stroke-width="40" stroke-linecap="round" stroke-linejoin="round"/>
</g>
<defs>
<clipPath id="clip0_209_90">
<rect width="451" height="451" fill="white" transform="translate(24 24)"/>
</clipPath>
</defs>
</svg>
